<?xml version="1.0" encoding="UTF-8"?>
<svg version="1.1" xmlns="http://www.w3.org/2000/svg" width="325" height="371">
<path d="M0 0 C4.71099195 5.07337594 6.56505946 9.71788744 6.37109375 16.609375 C5.08561276 24.89057887 -1.4500899 31.17466012 -7 37 C-8.80859375 36.80078125 -8.80859375 36.80078125 -11 36 C-12.53515625 33.91796875 -12.53515625 33.91796875 -14.0625 31.1875 C-22.04188169 18.17028835 -31.75864928 9.06944954 -46.26953125 3.81640625 C-63.79725756 -0.01950453 -81.82877501 3.30405616 -96.9375 12.80859375 C-125.35911656 33.1460005 -142.3100733 64.38972997 -148.11132812 98.6328125 C-149.26392285 106.06670746 -149.74575283 113.48381804 -150 121 C-150.04125 122.01320312 -150.0825 123.02640625 -150.125 124.0703125 C-150.56560861 144.28323231 -146.48094022 165.15940235 -132.1875 180.375 C-118.03234564 193.49573924 -101.36271281 195.78676865 -82.87841797 195.18359375 C-61.8102864 193.83980792 -42.43826802 183.68283204 -26 171 C-28.57008492 166.29196833 -31.2035643 161.66437882 -34.0625 157.125 C-42.07567506 143.86608662 -43.56429681 129.59275848 -40.25 114.609375 C-34.26099404 95.54437268 -21.83682606 82.44561924 -4.43359375 73.02734375 C9.8180194 65.69548975 23.31895779 63.66284228 39.25 63.5625 C41.13247437 63.5471521 41.13247437 63.5471521 43.05297852 63.53149414 C56.78484979 63.66062267 69.86843219 65.75503357 80.0625 75.5625 C83.4850511 79.81476046 83.88957032 83.46162837 83.5625 88.82421875 C82.48416673 94.91230868 80.67819182 101.73124398 75.828125 105.83984375 C75.22484375 106.22269531 74.6215625 106.60554688 74 107 C70.78813854 104.07153808 68.50283531 101.28785895 66.25 97.5625 C60.25753376 88.38320056 50.31789658 84.86839913 40.0625 82.25 C25.19982113 81.03672009 12.86781562 83.13658442 1 92.59375 C-6.24964643 99.21842691 -10.23009285 108.45216025 -11.21875 118.14453125 C-11.56987575 126.49839796 -9.7648021 133.41592642 -4.1875 139.75 C-2.47747162 141.51870583 -0.74569916 143.26649148 1 145 C2.14174336 146.16426892 3.28230044 147.32970196 4.421875 148.49609375 C9.74693044 153.91474806 15.10013211 159.25529397 20.890625 164.1796875 C26.05889075 168.63970942 31.02300198 173.32909411 36 178 C36.95519531 178.88816406 37.91039062 179.77632812 38.89453125 180.69140625 C50.41440836 191.74982905 59.22953839 204.56298628 66 219 C66.57234375 220.21816406 66.57234375 220.21816406 67.15625 221.4609375 C72.12761657 234.5798215 69.80797451 251.88769244 64.55859375 264.44921875 C54.95793914 285.05387192 37.26795257 300.14376422 16 308 C-5.01127217 314.43823661 -32.41320871 317.60716927 -53 308 C-54.00289062 307.55398438 -55.00578125 307.10796875 -56.0390625 306.6484375 C-67.99082472 300.7548688 -76.4366296 291.908426 -81.375 279.5625 C-83.02701515 270.14601365 -82.51576351 263.01069866 -77 255 C-67.88109435 243.81866012 -67.88109435 243.81866012 -63 241 C-60.87866211 241.42993164 -60.87866211 241.42993164 -59 242 C-58.82984375 243.25554687 -58.6596875 244.51109375 -58.484375 245.8046875 C-56.50576461 259.75110395 -54.06430972 273.70467054 -42.41796875 283.078125 C-36.93121093 286.73084769 -31.40708593 289.42845062 -25 291 C-24.28585938 291.18175781 -23.57171875 291.36351562 -22.8359375 291.55078125 C-4.04569237 294.52719749 11.45515682 290.20124072 27.05859375 279.6015625 C34.46922435 273.89092066 39.64101826 265.21087626 41 256 C42.03798149 245.44718822 37.44025033 236.14300308 31 228 C28.5282231 225.15234959 26.00091574 222.37143855 23.4296875 219.61328125 C21.45569241 217.49012576 19.55944306 215.33687301 17.6875 213.125 C10.58645038 204.96384107 2.74547595 197.2536681 -5.51171875 190.26953125 C-7 189 -7 189 -9 187 C-12.93205259 187.26672567 -15.44175405 189.69273081 -18.4375 192.0625 C-35.3749451 205.07892786 -54.15409106 214.30625399 -75 219 C-76.00804687 219.23332031 -77.01609375 219.46664062 -78.0546875 219.70703125 C-103.47493908 224.71186832 -131.52523967 222.4848562 -154 209 C-172.45684706 196.37163096 -183.43402118 177.21928259 -187.6796875 155.52734375 C-193.44919248 118.57880159 -184.46739769 77.19852334 -162.89453125 46.5625 C-161.95673828 45.2940625 -161.95673828 45.2940625 -161 44 C-160.42636719 43.21625 -159.85273438 42.4325 -159.26171875 41.625 C-136.17121729 11.04999117 -104.01450328 -9.51127493 -66 -15 C-64.51693359 -15.21462891 -64.51693359 -15.21462891 -63.00390625 -15.43359375 C-41.69335743 -17.82770534 -16.38779369 -14.84620165 0 0 Z " fill="#EFF2F3" transform="translate(210,44)"/>
<path d="M0 0 C1.55329583 4.01785854 0.46192173 7.68893911 -0.375 11.75 C-1.98663861 20.18815072 -2.7095345 28.41311354 -3 37 C-3.061875 38.51980469 -3.061875 38.51980469 -3.125 40.0703125 C-3.38573755 52.03164775 -2.07432741 63.74709572 2 75 C1.67 75.99 1.34 76.98 1 78 C-1 77 -1 77 -2 74.6875 C-4.72029696 64.65640494 -5.32056716 54.78317935 -5.26074219 44.44726562 C-5.25008135 42.26663982 -5.26066822 40.08685001 -5.2734375 37.90625 C-5.28663561 25.06394212 -4.7428511 12.07271188 0 0 Z " fill="#3F4F58" transform="translate(63,128)"/>
<path d="M0 0 C0.33 0.66 0.66 1.32 1 2 C0.36328125 3.63671875 0.36328125 3.63671875 -0.6875 5.6875 C-7.3655212 20.23022909 -9.61614522 35.45436471 -4.359375 50.84375 C-2.40996591 55.3699642 0.04655957 59.49515975 2.70703125 63.63671875 C3.13371094 64.41660156 3.56039062 65.19648438 4 66 C3.505 66.99 3.505 66.99 3 68 C-7.29408623 52.52995469 -11.73101156 39.66937413 -9 21 C-7.25083723 13.36256651 -4.09646278 6.64835763 0 0 Z " fill="#596974" transform="translate(178,141)"/>
<path d="M0 0 C1.46345555 -0.02162422 2.92678023 -0.05578072 4.38964844 -0.10253906 C18.12558024 -0.53617538 18.12558024 -0.53617538 22.76391602 3.43237305 C23.58762695 4.41334961 24.41133789 5.39432617 25.26000977 6.4050293 C24.60000977 6.7350293 23.94000977 7.0650293 23.26000977 7.4050293 C21.23657227 6.6628418 21.23657227 6.6628418 18.88500977 5.5300293 C5.72770101 -0.76259663 -10.93701771 1.27972117 -24.32983398 5.9206543 C-26.91724192 7.04690288 -29.15506092 8.20070776 -31.55639648 9.6394043 C-32.60698242 10.22206055 -33.65756836 10.8047168 -34.73999023 11.4050293 C-35.39999023 11.0750293 -36.05999023 10.7450293 -36.73999023 10.4050293 C-36.40999023 9.4150293 -36.07999023 8.4250293 -35.73999023 7.4050293 C-33.91967773 6.5612793 -33.91967773 6.5612793 -31.61499023 5.9050293 C-28.65705987 5.01436881 -25.85812088 4.07300449 -23.05249023 2.7800293 C-15.710399 -0.26763121 -7.83100727 0.08684549 0 0 Z " fill="#7B8990" transform="translate(149.739990234375,44.594970703125)"/>
<path d="M0 0 C1.17046875 0.01804687 2.3409375 0.03609375 3.546875 0.0546875 C4.88492188 0.08949219 4.88492188 0.08949219 6.25 0.125 C-9.76598438 8.96523156 -35.52465482 5.76882302 -52.75 2.125 C-52.75 1.795 -52.75 1.465 -52.75 1.125 C-51.533125 1.104375 -50.31625 1.08375 -49.0625 1.0625 C-48.03576172 1.04509766 -48.03576172 1.04509766 -46.98828125 1.02734375 C-44.75 1.125 -44.75 1.125 -42.52832031 1.62060547 C-37.46846245 2.53920532 -32.33168585 2.31093048 -27.20239258 2.31030273 C-25.19005424 2.31249721 -23.17825778 2.33070701 -21.16601562 2.34960938 C-19.89306641 2.35154297 -18.62011719 2.35347656 -17.30859375 2.35546875 C-16.14642334 2.35957764 -14.98425293 2.36368652 -13.78686523 2.36791992 C-8.74762675 1.96482946 -5.33630201 -0.10672604 0 0 Z " fill="#8497A5" transform="translate(132.75,260.875)"/>
<path d="M0 0 C0.66 0.33 1.32 0.66 2 1 C1.09121094 1.70962891 1.09121094 1.70962891 0.1640625 2.43359375 C-2.57800843 4.5977205 -5.29196048 6.79344928 -8 9 C-8.82628906 9.66257812 -9.65257813 10.32515625 -10.50390625 11.0078125 C-20.49121039 19.44011102 -28.09542705 30.39446006 -34 42 C-34.85943177 39.62291825 -35.2235123 38.49079737 -34.15478516 36.14404297 C-33.70409668 35.51643066 -33.2534082 34.88881836 -32.7890625 34.2421875 C-32.29027588 33.53860107 -31.79148926 32.83501465 -31.27758789 32.11010742 C-30.73223389 31.37252197 -30.18687988 30.63493652 -29.625 29.875 C-29.07642334 29.11743408 -28.52784668 28.35986816 -27.96264648 27.5793457 C-23.02980102 20.85600153 -17.95365748 14.04701324 -11.30859375 8.92578125 C-8.7537297 7.13773942 -8.7537297 7.13773942 -8 4 C-5.625 2.9375 -5.625 2.9375 -3 2 C-2.01 1.34 -1.02 0.68 0 0 Z " fill="#5F6E76" transform="translate(111,56)"/>
<path d="M0 0 C0.495 0.99 0.495 0.99 1 2 C0.05640625 1.7834375 -0.8871875 1.566875 -1.859375 1.34375 C-13.19344719 -1.11424156 -23.46163747 -1.53844834 -35 0 C-34.34 -0.33 -33.68 -0.66 -33 -1 C-33 -1.66 -33 -2.32 -33 -3 C-21.9360451 -5.45865664 -10.35635444 -4.46394588 0 0 Z " fill="#919FA7" transform="translate(261,127)"/>
<path d="M0 0 C4.12089157 2.12288354 6.95424277 4.84811567 10.13671875 8.1328125 C11.90013709 9.89992773 13.72020047 11.51293808 15.625 13.125 C21.75072634 18.39118766 27.33087054 24.25309285 33 30 C32.67 30.66 32.34 31.32 32 32 C31.46632812 31.46109131 30.93265625 30.92218262 30.3828125 30.36694336 C27.92460574 27.88773764 25.46233634 25.41260401 23 22.9375 C22.16082031 22.08994141 21.32164062 21.24238281 20.45703125 20.36914062 C12.41417233 11.65746543 12.41417233 11.65746543 2.8203125 4.94506836 C1 4 1 4 0.25 1.875 C0.1675 1.25625 0.085 0.6375 0 0 Z " fill="#495662" transform="translate(224,203)"/>
<path d="M0 0 C0 0.66 0 1.32 0 2 C-0.99 2 -1.98 2 -3 2 C-3.2578125 2.60457031 -3.515625 3.20914063 -3.78125 3.83203125 C-5.12519419 6.2227012 -6.25350537 7.15454363 -8.5 8.6875 C-12.91295586 11.82810728 -16.78130326 15.41630262 -20.703125 19.14453125 C-22.92197704 20.93697125 -24.21711013 21.61065073 -27 22 C-23.21935483 18.09739853 -19.2164765 14.50936446 -15.13671875 10.921875 C-13.47237218 9.42487589 -11.8770885 7.85097428 -10.3125 6.25 C-3.88888889 0 -3.88888889 0 0 0 Z " fill="#D9E4E8" transform="translate(95,47)"/>
<path d="M0 0 C0.625 1.8515625 0.625 1.8515625 1 4 C-1 6.375 -1 6.375 -4 9 C-4.5671875 9.52207031 -5.134375 10.04414063 -5.71875 10.58203125 C-8.96336047 13.50644989 -11.7406685 15.70929349 -16 17 C-16 17.66 -16 18.32 -16 19 C-22.625 22.125 -22.625 22.125 -26 21 C-25.32195312 20.6596875 -24.64390625 20.319375 -23.9453125 19.96875 C-14.26413677 14.92702967 -5.85832138 9.37331421 0 0 Z " fill="#8E9CB3" transform="translate(247,312)"/>
<path d="M0 0 C0.33 0 0.66 0 1 0 C0.50085967 9.98280656 -2.99814939 18.99753252 -9 27 C-9.33 26.34 -9.66 25.68 -10 25 C-9.2578125 23.265625 -9.2578125 23.265625 -8.125 21.25 C-6.29725327 17.81358577 -5.56566294 14.86536343 -5 11 C-4.34 10.67 -3.68 10.34 -3 10 C-2.08968728 7.65613191 -2.08968728 7.65613191 -1.375 4.9375 C-1.11460937 4.01839844 -0.85421875 3.09929687 -0.5859375 2.15234375 C-0.39257812 1.44207031 -0.19921875 0.73179687 0 0 Z " fill="#A8BBD0" transform="translate(277,293)"/>
<path d="M0 0 C0.99 0.33 1.98 0.66 3 1 C1.85286384 2.14713616 0.70506872 3.29361811 -0.4453125 4.4375 C-1.53379771 5.53145498 -2.61105985 6.6366391 -3.6796875 7.75 C-7.22121787 11.40171132 -10.65412442 14.35007587 -15 17 C-13.44552062 13.3979537 -11.252552 10.83129897 -8.625 7.9375 C-7.85414063 7.08027344 -7.08328125 6.22304688 -6.2890625 5.33984375 C-4.26809991 3.27404752 -2.48311328 1.47658382 0 0 Z " fill="#90A7B7" transform="translate(147,285)"/>
<path d="M0 0 C0.33 0 0.66 0 1 0 C1.10957031 1.12277344 1.21914063 2.24554688 1.33203125 3.40234375 C2.23106024 13.04590423 2.23106024 13.04590423 4.6875 22.375 C6 26 6 26 5 29 C3 28 3 28 1.9375 25.375 C0.23829389 19.25785799 -0.11852433 13.39324985 -0.0625 7.0625 C-0.05798828 6.37865234 -0.05347656 5.69480469 -0.04882812 4.99023438 C-0.0371956 3.32678396 -0.01926694 1.6633795 0 0 Z " fill="#2E424C" transform="translate(59,177)"/>
<path d="M0 0 C0.33 0.66 0.66 1.32 1 2 C0.328125 3.8125 0.328125 3.8125 -0.75 6 C-2.70849367 10.16600544 -4.03753737 14.28764415 -5.19140625 18.73828125 C-6.08629888 21.24138673 -7.31490765 22.96015136 -9 25 C-8.19334006 15.92507571 -4.78494902 7.69009664 0 0 Z " fill="#4D5E69" transform="translate(178,141)"/>
<path d="M0 0 C10.37757848 -0.92017937 10.37757848 -0.92017937 14.35546875 1.3359375 C16.0355005 2.81159426 17.55738055 4.29323896 19 6 C18.01 6.495 18.01 6.495 17 7 C15.1171875 6.29296875 15.1171875 6.29296875 12.875 5.1875 C8.62085125 3.19487603 4.58334906 2.00000343 0 1 C0 0.67 0 0.34 0 0 Z " fill="#A7B1B9" transform="translate(156,45)"/>
<path d="M0 0 C-1.22976562 0.59748047 -1.22976562 0.59748047 -2.484375 1.20703125 C-4.10085937 2.00173828 -4.10085937 2.00173828 -5.75 2.8125 C-6.81734375 3.33457031 -7.8846875 3.85664063 -8.984375 4.39453125 C-11.55233242 5.7616692 -13.74470783 7.17715463 -16 9 C-14.375 3.25 -14.375 3.25 -11 1 C-6.8615887 -0.42963299 -4.19141717 -1.29887873 0 0 Z " fill="#959FA8" transform="translate(226,128)"/>
<path d="M0 0 C-2.24179377 1.36965208 -4.49172338 2.72052808 -6.75 4.0625 C-7.38421875 4.45244141 -8.0184375 4.84238281 -8.671875 5.24414062 C-13.50498766 8.08862881 -13.50498766 8.08862881 -16.21582031 7.60327148 C-16.80459961 7.40419189 -17.39337891 7.2051123 -18 7 C-15.56876731 5.63336613 -13.13113837 4.2816133 -10.6875 2.9375 C-9.99720703 2.54755859 -9.30691406 2.15761719 -8.59570312 1.75585938 C-3.33984375 -1.11328125 -3.33984375 -1.11328125 0 0 Z " fill="#7F8B95" transform="translate(113,39)"/>
<path d="M0 0 C2.91880126 0.25524497 5.8339763 0.52850076 8.75 0.8125 C9.575 0.88275391 10.4 0.95300781 11.25 1.02539062 C18.79475636 1.78595074 18.79475636 1.78595074 22 5 C14.47407567 4.3622098 7.32901118 2.80110167 0 1 C0 0.67 0 0.34 0 0 Z " fill="#AEB8C0" transform="translate(259,109)"/>
<path d="M0 0 C0 0.66 0 1.32 0 2 C-1.6796875 3.25390625 -1.6796875 3.25390625 -3.875 4.5625 C-4.59429687 4.99691406 -5.31359375 5.43132812 -6.0546875 5.87890625 C-7.34834796 6.62444953 -8.66451742 7.33225871 -10 8 C-12.125 7.0625 -12.125 7.0625 -14 6 C-12.04414675 4.99515796 -10.08523763 3.99626195 -8.125 3 C-6.48917969 2.1646875 -6.48917969 2.1646875 -4.8203125 1.3125 C-2 0 -2 0 0 0 Z " fill="#8C98A6" transform="translate(170,226)"/>
<path d="M0 0 C0 0.33 0 0.66 0 1 C-0.65226562 1.04898438 -1.30453125 1.09796875 -1.9765625 1.1484375 C-5.98446737 1.49129662 -9.54145317 1.84715106 -13.375 3.125 C-16.14277004 4.04759001 -17.31990912 4.03080418 -20 3 C-19.34 3 -18.68 3 -18 3 C-18 2.34 -18 1.68 -18 1 C-12.03325384 -0.32594359 -6.07416385 -0.0884587 0 0 Z " fill="#BAC5CC" transform="translate(246,123)"/>
<path d="M0 0 C0 0.66 0 1.32 0 2 C-0.99 2 -1.98 2 -3 2 C-3.433125 2.928125 -3.433125 2.928125 -3.875 3.875 C-5 6 -5 6 -7 8 C-9.625 8.125 -9.625 8.125 -12 8 C-4.43243243 0 -4.43243243 0 0 0 Z " fill="#8A969D" transform="translate(95,47)"/>
<path d="M0 0 C0.33 1.32 0.66 2.64 1 4 C1.99 4 2.98 4 4 4 C4 5.32 4 6.64 4 8 C4.66 8.33 5.32 8.66 6 9 C6.625 12.0625 6.625 12.0625 7 15 C2.95809952 11.37622716 0.17431242 7.67279045 -0.1875 2.125 C-0.125625 1.42375 -0.06375 0.7225 0 0 Z " fill="#859CA9" transform="translate(129,320)"/>
<path d="M0 0 C0.66 0.33 1.32 0.66 2 1 C-0.57784846 3.64752004 -2.91648098 5.94432065 -6 8 C-7.32 7.67 -8.64 7.34 -10 7 C-6.7 4.69 -3.4 2.38 0 0 Z " fill="#87929D" transform="translate(180,218)"/>
<path d="M0 0 C5.26964527 2.63482263 8.97903554 6.79943911 13 11 C10 11 10 11 8.5 9.72265625 C8.005 9.17480469 7.51 8.62695312 7 8.0625 C4.87768805 5.72464075 4.11172349 5.03724116 1 4 C0.3125 1.9375 0.3125 1.9375 0 0 Z " fill="#67727E" transform="translate(224,203)"/>
<path d="M0 0 C0 0.99 0 1.98 0 3 C-6.96428571 6.34821429 -6.96428571 6.34821429 -11 5 C-9.54462432 4.16151196 -8.08559627 3.32936066 -6.625 2.5 C-5.81289062 2.0359375 -5.00078125 1.571875 -4.1640625 1.09375 C-2 0 -2 0 0 0 Z " fill="#8F9AA1" transform="translate(210,116)"/>
<path d="M0 0 C0.6328125 1.84375 0.6328125 1.84375 1 4 C-1.94955185 7.470061 -5.40155384 10.22405582 -9 13 C-7.50923566 9.7173068 -5.61379679 7.06922559 -3.375 4.25 C-2.74335938 3.45078125 -2.11171875 2.6515625 -1.4609375 1.828125 C-0.97882813 1.22484375 -0.49671875 0.6215625 0 0 Z " fill="#9EA9C2" transform="translate(247,312)"/>
<path d="M0 0 C0.33 0 0.66 0 1 0 C1.36637589 6.35051546 1.36637589 6.35051546 -0.375 9.4375 C-2 11 -2 11 -4 11 C-2.95902388 7.13351728 -1.96301592 3.50538557 0 0 Z " fill="#C0CDDD" transform="translate(252,301)"/>
<path d="M0 0 C0.66 0.33 1.32 0.66 2 1 C-1.69948187 4.61139896 -1.69948187 4.61139896 -4 6 C-7.375 5.8125 -7.375 5.8125 -10 5 C-6.76527494 2.84351662 -3.62848922 1.38542316 0 0 Z " fill="#DCE5E8" transform="translate(156,233)"/>
<path d="M0 0 C-1.45264038 0.8638129 -2.9123163 1.71580454 -4.375 2.5625 C-5.59316406 3.27599609 -5.59316406 3.27599609 -6.8359375 4.00390625 C-7.55007812 4.33261719 -8.26421875 4.66132812 -9 5 C-9.66 4.67 -10.32 4.34 -11 4 C-10.67 3.01 -10.34 2.02 -10 1 C-3.84210526 -1.28070175 -3.84210526 -1.28070175 0 0 Z " fill="#919EAB" transform="translate(124,51)"/>
<path d="M0 0 C2 3 2 3 2 6 C2.66 6 3.32 6 4 6 C4.33 7.65 4.66 9.3 5 11 C4.01 10.67 3.02 10.34 2 10 C0.47839986 6.3962102 0 3.94779314 0 0 Z " fill="#83919C" transform="translate(60,195)"/>
<path d="M0 0 C0.66 0.33 1.32 0.66 2 1 C0.71283353 2.00578589 -0.57988658 3.00446798 -1.875 4 C-2.95394531 4.8353125 -2.95394531 4.8353125 -4.0546875 5.6875 C-6 7 -6 7 -8 7 C-8 6.01 -8 5.02 -8 4 C-7.236875 3.71125 -6.47375 3.4225 -5.6875 3.125 C-2.84970692 2.03730987 -2.84970692 2.03730987 0 0 Z " fill="#86989F" transform="translate(111,56)"/>
</svg>
